<svg width="136" height="36" viewBox="0 0 136 36" fill="none" xmlns="http://www.w3.org/2000/svg">
<path d="M61.8597 24.582C62.0877 24.582 62.2802 24.75 62.3094 24.9744L62.3858 25.5624C62.4208 25.8316 62.2096 26.07 61.9362 26.07H53.1603C52.9099 26.07 52.7069 25.8685 52.7069 25.62V10.2C52.7069 9.95147 52.9099 9.75 53.1603 9.75H54.1396C54.39 9.75 54.593 9.95147 54.593 10.2V24.132C54.593 24.3805 54.796 24.582 55.0464 24.582H61.8597Z" fill="white"/>
<path d="M66.13 9.75C66.3804 9.75 66.5834 9.95147 66.5834 10.2V20.07C66.5834 20.998 66.7607 21.814 67.1153 22.518C67.4861 23.222 67.9939 23.774 68.6387 24.174C69.2997 24.574 70.0654 24.774 70.9359 24.774C71.8226 24.774 72.5883 24.574 73.2331 24.174C73.878 23.774 74.3696 23.222 74.7082 22.518C75.0628 21.798 75.2401 20.982 75.2401 20.07V10.2C75.2401 9.95147 75.4431 9.75 75.6935 9.75H76.7212C76.9716 9.75 77.1746 9.95147 77.1746 10.2V20.286C77.1746 21.438 76.9167 22.47 76.4008 23.382C75.9011 24.294 75.1837 25.014 74.2487 25.542C73.3299 26.07 72.2256 26.334 70.9359 26.334C69.6624 26.334 68.5581 26.078 67.6231 25.566C66.6882 25.038 65.9627 24.318 65.4469 23.406C64.9471 22.478 64.6973 21.438 64.6973 20.286V10.2C64.6973 9.95147 64.9002 9.75 65.1506 9.75H66.13Z" fill="white"/>
<path d="M88.929 20.4154C88.8604 20.5168 88.7533 20.5861 88.6323 20.6076L88.4312 20.6432C88.2566 20.6742 88.0799 20.6012 87.9788 20.4566L84.1103 14.9169C83.8572 14.5544 83.2843 14.7322 83.2843 15.1732V25.62C83.2843 25.8685 83.0813 26.07 82.8309 26.07H81.8516C81.6012 26.07 81.3982 25.8685 81.3982 25.62V10.2C81.3982 9.95147 81.6012 9.75 81.8516 9.75H82.275C82.4226 9.75 82.561 9.82132 82.6459 9.94116L88.0343 17.5469C88.2164 17.8039 88.6011 17.8013 88.7796 17.5418L94.0065 9.9462C94.091 9.82343 94.2311 9.75 94.3809 9.75H94.8972C95.1476 9.75 95.3506 9.95147 95.3506 10.2V25.62C95.3506 25.8685 95.1476 26.07 94.8972 26.07H93.8695C93.6191 26.07 93.4161 25.8685 93.4161 25.62V15.2596C93.4161 14.8151 92.8359 14.6397 92.5863 15.0087L88.929 20.4154Z" fill="white"/>
<path d="M101.703 25.62C101.703 25.8685 101.5 26.07 101.25 26.07H100.271C100.02 26.07 99.8172 25.8685 99.8172 25.62V10.2C99.8172 9.95147 100.02 9.75 100.271 9.75H101.25C101.5 9.75 101.703 9.95147 101.703 10.2V25.62Z" fill="white"/>
<path d="M108.079 25.62C108.079 25.8685 107.876 26.07 107.626 26.07H106.646C106.396 26.07 106.193 25.8685 106.193 25.62V10.2C106.193 9.95147 106.396 9.75 106.646 9.75H107.46C107.606 9.75 107.743 9.81965 107.828 9.93717L115.696 20.79L115.847 21.0354C116.086 21.4229 116.688 21.2548 116.688 20.8005V10.2C116.688 9.95147 116.891 9.75 117.141 9.75H118.169C118.419 9.75 118.622 9.95147 118.622 10.2V25.62C118.622 25.8685 118.419 26.07 118.169 26.07H117.333C117.186 26.07 117.048 25.9993 116.963 25.8804L108.708 14.334C108.533 14.0402 108.079 14.1633 108.079 14.5046V25.62Z" fill="white"/>
<path d="M130.418 19.902C130.737 19.902 130.956 19.5845 130.841 19.2897L128.536 13.373C128.385 12.9872 127.834 12.9902 127.688 13.3777L125.457 19.2943C125.346 19.5884 125.566 19.902 125.882 19.902H130.418ZM127.101 10.0436C127.167 9.86714 127.337 9.75 127.527 9.75H128.714C128.901 9.75 129.069 9.86396 129.137 10.037L135.158 25.4101C135.262 25.6762 135.094 25.9701 134.81 26.017L133.84 26.1774C133.627 26.2126 133.419 26.0938 133.342 25.8934L131.747 21.7282C131.68 21.5535 131.512 21.438 131.323 21.438H125.013C124.822 21.438 124.653 21.5556 124.587 21.7326L123.089 25.7754C123.023 25.9524 122.853 26.07 122.663 26.07H121.769C121.453 26.07 121.234 25.7575 121.344 25.4636L127.101 10.0436Z" fill="white"/>
<path d="M0 18C0 13.1362 1.94367 8.72291 5.10215 5.48362C5.45385 5.12292 6.04524 5.38035 6.04524 5.8823V23.2065C6.04524 23.6447 6.4032 24 6.84477 24H11.1837C11.4859 24.025 12.0905 24.24 12.0905 24.9V29.2064C12.0905 29.6447 12.4484 30 12.89 30H23.3814C23.823 30 24.1809 29.6447 24.1809 29.2064V24.9C24.1809 24.24 24.7855 24.025 25.0877 24H29.4266C29.8682 24 30.2262 23.6447 30.2262 23.2065V18.7935C30.2262 18.3553 29.8682 18 29.4266 18H24.9805C24.5389 18 24.1809 18.3553 24.1809 18.7935V23.1004C24.1807 23.7601 23.5763 23.975 23.2742 24H12.9973C12.6951 23.975 12.0907 23.7601 12.0905 23.1004V1.76129C12.0905 1.3125 12.3149 0.9375 12.9406 0.75C12.9486 0.747606 13.035 0.721692 13.035 0.721692C14.653 0.251945 16.3647 0 18.1357 0C28.1518 0 36.2714 8.05888 36.2714 18C36.2714 27.9411 28.1518 36 18.1357 36C8.11963 36 0 27.9411 0 18Z" fill="white"/>
<path d="M23.3814 24C23.3823 24 23.3832 24 23.3841 24L23.5959 24C23.919 24 24.1809 24.26 24.1809 24.5806L24.1809 24.7909C24.1809 24.7918 24.1809 24.7927 24.1809 24.7935V24.5806C24.1809 24.26 23.919 24 23.5959 24H23.3814Z" fill="white"/>
<path d="M12.0905 24.5806C12.0905 24.26 12.3524 24 12.6755 24L12.89 24L12.8873 24H12.6755C12.3524 24 12.0905 24.26 12.0905 24.5806V24.7909L12.0905 24.7935L12.0905 24.5806Z" fill="white"/>
</svg>
